<svg height='300px' width='300px' fill="#000000" xmlns="http://www.w3.org/2000/svg" xmlns:xlink="http://www.w3.org/1999/xlink" version="1.1" x="0px" y="0px" viewBox="0 0 100 100" enable-background="new 0 0 100 100" xml:space="preserve">
    <g display="none">
        <rect x="-250" y="-61" display="inline" fill="#000000" width="1448" height="452"></rect>
    </g>
    <g>
        <path d="M92.148,55.869c-0.626-0.939-1.482-1.519-2.568-1.739l-6.792-1.242c0.368-5.669-0.727-11.035-3.286-16.096l5.853-4.224   c0.939-0.663,1.491-1.574,1.657-2.733c0.202-1.086-0.037-2.071-0.718-2.954l-0.469-0.718c-0.626-0.883-1.537-1.427-2.733-1.629   c-1.031-0.166-2.016,0.092-2.954,0.773l-5.632,4.059c-3.81-4.215-8.347-7.206-13.611-8.973l1.27-7.731   c0.202-1.104-0.037-2.126-0.718-3.065c-0.626-0.883-1.482-1.427-2.568-1.629l-0.856-0.166c-1.104-0.147-2.126,0.092-3.065,0.718   c-0.884,0.681-1.427,1.565-1.629,2.65l-1.16,7.427c-2.503-0.221-4.951-0.175-7.344,0.138c-1.362,0.055-2.641,0.294-3.838,0.718   c-0.626,0.147-1.224,0.331-1.795,0.552l-3.451-7.51c-0.46-0.994-1.215-1.693-2.264-2.098c-1.031-0.423-2.043-0.405-3.037,0.055   l-0.773,0.414c-0.994,0.405-1.73,1.16-2.209,2.264c-0.368,1.031-0.313,2.043,0.166,3.037l3.506,7.648   c-0.202,0.11-0.405,0.249-0.607,0.414c-5.264,3.681-9.019,8.31-11.265,13.888l-6.958-1.546c-1.086-0.276-2.098-0.074-3.037,0.607   c-0.994,0.534-1.592,1.344-1.795,2.43L7.222,40.38c-0.203,1.104-0.018,2.172,0.552,3.203c0.626,0.883,1.491,1.463,2.595,1.739   l6.626,1.546c-0.736,5.835,0.101,11.329,2.512,16.483l-5.411,3.672c-0.939,0.626-1.537,1.491-1.795,2.595   c-0.147,1.086,0.092,2.098,0.718,3.037l0.469,0.635c0.626,0.939,1.454,1.537,2.485,1.795c1.16,0.147,2.209-0.092,3.147-0.718   l5.135-3.424c3.7,4.583,8.255,7.887,13.667,9.912l-1.242,6.323c-0.202,1.104,0.009,2.154,0.635,3.147   c0.626,0.883,1.482,1.427,2.568,1.629l0.801,0.166c1.086,0.258,2.098,0.101,3.037-0.469c0.939-0.681,1.509-1.574,1.712-2.678   l1.242-6.074c6,0.626,11.651-0.285,16.952-2.733l4.003,6.074c0.626,0.939,1.509,1.518,2.651,1.739   c1.049,0.258,2.043,0.074,2.982-0.552l0.69-0.387c0.939-0.626,1.537-1.518,1.795-2.678c0.203-1.086-0.009-2.098-0.635-3.037   l-3.81-5.936c4.583-3.7,7.841-8.255,9.774-13.667l6.875,1.242c1.086,0.202,2.098-0.009,3.037-0.635   c0.883-0.607,1.427-1.463,1.629-2.568l0.166-0.773C92.986,57.885,92.774,56.845,92.148,55.869z M42.063,40.856   c-0.824,1.929-2.217,3.297-4.178,4.102c-1.962,0.806-3.92,0.815-5.876,0.028c-1.936-0.778-3.299-2.13-4.09-4.056   s-0.774-3.853,0.05-5.782c0.844-1.92,2.247-3.284,4.209-4.089c1.962-0.806,3.91-0.819,5.846-0.041   c1.956,0.787,3.329,2.144,4.12,4.069C42.934,37.012,42.907,38.935,42.063,40.856z"></path>
    </g>
</svg>
