<svg height='300px' width='300px' fill="#000000" xmlns="http://www.w3.org/2000/svg" xmlns:xlink="http://www.w3.org/1999/xlink" version="1.1" x="0px" y="0px" viewBox="0 0 100 100" enable-background="new 0 0 100 100" xml:space="preserve">
    <path d="M51.875,75.781"></path>
    <path d="M47.77,75"></path>
    <path d="M52.227,75"></path>
    <circle cx="50.104" cy="50.112" r="2.5"></circle>
    <path d="M75.02,48.017"></path>
    <path d="M55,50.112c0,2.761-2.234,5-5,5s-5-2.238-5-5c0-2.762,2.234-5,5-5S55,47.35,55,50.112z M34.036,69.34  c3.787,3.179,8.536,5.248,13.761,5.711l0.083-0.001c0.413-0.812,1.255-1.366,2.229-1.366c0.973,0,1.812,0.553,2.227,1.361  l0.102,0.006c5.189-0.458,9.905-2.518,13.676-5.677l-0.015-0.081c-0.282-0.867-0.116-1.838,0.573-2.527l0.063-0.068  c0.688-0.688,1.646-0.838,2.511-0.559l0.071,0.012c3.154-3.807,5.208-8.566,5.683-13.771l0,0c-0.812-0.412-1.367-1.254-1.367-2.229  l0,0c0-0.973,0.553-1.812,1.361-2.227l0,0c-0.438-5.205-2.49-9.952-5.65-13.755l0,0c-0.867,0.281-1.943,0.046-2.635-0.643  c-0.686-0.688-0.897-1.751-0.617-2.615l0,0c-3.816-3.184-8.591-5.261-13.811-5.736l-0.05,0.109  c-0.414,0.809-1.254,1.361-2.227,1.361l0,0c-0.975,0-1.793-0.579-2.207-1.391l0,0c-5.083,0.466-9.725,2.453-13.467,5.502l0,0.086  c0.279,0.865-0.033,1.953-0.722,2.643c-0.688,0.688-1.708,0.778-2.573,0.501l0,0c-3.225,3.802-5.333,8.581-5.819,13.829l0.058,0.069  c0.812,0.413,1.366,1.255,1.366,2.229l0,0c0,0.972-0.625,1.865-1.433,2.279l0,0c0.458,5.183,2.485,9.91,5.607,13.697l0.097-0.014  c0.865-0.281,1.853-0.078,2.542,0.611c0.688,0.688,0.893,1.672,0.613,2.535L34.036,69.34z"></path>
    <path d="M48.125,75.781"></path>
    <path d="M48.229,76.187c0.343-0.674,1.068-1.136,1.876-1.136v0.003c0.808,0,1.53,0.463,1.874,1.133v10h-3.75V76.187z"></path>
    <path d="M48.125,23.532c0.343,0.674,1.068,1.136,1.876,1.136v-0.003c0.808,0,1.53-0.463,1.874-1.133v-10h-3.75V23.532z"></path>
    <path d="M76.156,51.987c-0.674-0.343-1.137-1.068-1.137-1.876h0.004c0-0.808,0.463-1.53,1.133-1.874h10v3.75H76.156z"></path>
    <path d="M24.071,48.237c0.674,0.343,1.137,1.068,1.137,1.876h-0.004c0,0.808-0.463,1.529-1.133,1.874h-10v-3.75H24.071z"></path>
    <path d="M33.193,29.983c0.233,0.719,0.049,1.557-0.524,2.129l-0.001-0.002c-0.571,0.571-1.409,0.754-2.126,0.523l-9.9-9.899  l2.652-2.652L33.193,29.983z"></path>
    <path d="M30.277,67.021c0.72-0.233,1.557-0.049,2.131,0.525h-0.004c0.572,0.571,0.754,1.409,0.523,2.126l-9.896,9.9l-2.653-2.653  L30.277,67.021z"></path>
    <path d="M67.298,69.969c-0.233-0.719-0.048-1.557,0.525-2.129l0.001,0.003c0.571-0.572,1.41-0.755,2.127-0.524l9.9,9.9l-2.652,2.652  L67.298,69.969z"></path>
    <path d="M69.966,32.768c-0.722,0.234-1.558,0.05-2.131-0.523h0.003c-0.571-0.572-0.754-1.41-0.525-2.127l9.899-9.901l2.655,2.654  L69.966,32.768z"></path>
</svg>
